# xmcd
#
# Track frame offsets: 
#        150
#        12425
#        25535
#        40382
#        55925
#        69672
#        83742
#        98917
#        113015
#        127162
#        139345
#        153212
#        168072
#        182845
#        197917
#        210850
#        225752
#        239427
#        251737
#        264547
#        276437
#        287545
#        301440
#        315857
#        329495
#
# Disc length: 4574 seconds
#
# Revision: 1
# Processed by: cddbd v1.5.2PL0 Copyright (c) Steve Scherf et al.
# Submitted via: ExactAudioCopy v1.0b1
#
DISCID=5911dc19
DTITLE=Eddie Heywood and The Blues Singers - In Chronological Order (192
DTITLE=3-1926)
DYEAR=1995
DGENRE=Blues
TTITLE0=The Black Bottom Blues
TTITLE1=The Mixed Up Blues
TTITLE2=Sing 'em Blues
TTITLE3=Yodle Song-Coo Coo
TTITLE4=Sleep, Baby, Sleep
TTITLE5=You Don't Worry My Mind
TTITLE6=Peachtree Man Blues
TTITLE7=Comic Yodle Song
TTITLE8=What's the Use Blues
TTITLE9=Tom Cat Rag
TTITLE10=Cannon Ball Blues
TTITLE11='Fo Day Blues
TTITLE12=Low Down Blues
TTITLE13=Sweet De Papa Blues
TTITLE14=Four-Thirty Blues
TTITLE15=Evolution Mama
TTITLE16=West Palm Beach Blues
TTITLE17=Foggy Morning Blues
TTITLE18=Bobbed Haired Woman Blues
TTITLE19=Traveling Blues
TTITLE20=Goose-Pecked Man
TTITLE21=Alias Charley Jones Blues
TTITLE22=Run Away Blues
TTITLE23=Let's Start Over Again
TTITLE24=Trombone Moanin' Blues
EXTD=
EXTT0=
EXTT1=
EXTT2=
EXTT3=
EXTT4=
EXTT5=
EXTT6=
EXTT7=
EXTT8=
EXTT9=
EXTT10=
EXTT11=
EXTT12=
EXTT13=
EXTT14=
EXTT15=
EXTT16=
EXTT17=
EXTT18=
EXTT19=
EXTT20=
EXTT21=
EXTT22=
EXTT23=
EXTT24=
PLAYORDER=
